<svg width="26" height="26" viewBox="0 0 26 26" fill="none" xmlns="http://www.w3.org/2000/svg">
<path d="M24.3501 23.5625C24.3501 24.4595 23.6221 25.1875 22.7251 25.1875H3.2749C2.3779 25.1875 1.6499 24.4595 1.6499 23.5625V2.4375C1.6499 1.5405 2.3779 0.8125 3.2749 0.8125H19.5249C19.9485 0.8125 20.3558 0.97825 20.6592 1.274L23.8604 4.39725C24.1735 4.70275 24.3501 5.12308 24.3501 5.56075V23.5625Z" stroke="#565656" stroke-width="0.975" stroke-linecap="round" stroke-linejoin="round"/>
<path d="M8.9624 5.6875C10.309 5.6875 11.3999 6.77842 11.3999 8.125C11.3999 9.47158 10.309 10.5625 8.9624 10.5625C7.61582 10.5625 6.5249 9.47158 6.5249 8.125C6.5249 6.77842 7.61582 5.6875 8.9624 5.6875Z" stroke="#565656" stroke-width="0.975" stroke-linecap="round" stroke-linejoin="round"/>
<path d="M20.3807 19.7166L16.1287 13.338C15.7939 12.8342 15.1136 12.6977 14.6098 13.0325C14.4961 13.1083 14.3964 13.2047 14.3184 13.3174L11.4032 17.4828L9.59615 16.0333C9.12382 15.6552 8.43482 15.7311 8.05674 16.2034C8.03615 16.2283 8.01774 16.2543 7.99932 16.2814L5.7124 19.7166" stroke="#565656" stroke-width="0.975" stroke-linecap="round" stroke-linejoin="round"/>
</svg>
