<svg width="100" height="42" viewBox="0 0 100 42" fill="none" xmlns="http://www.w3.org/2000/svg">
<path d="M98.6014 17.402C97.6672 16.9208 96.3743 16.6761 94.7255 16.6761C93.1685 16.6761 91.706 16.9779 90.3353 17.5815C88.9645 18.185 87.8134 19.0142 86.8792 20.0717V18.9544C86.8792 17.4455 86.1007 16.6925 84.5437 16.6925C83.7985 16.6925 83.2202 16.8882 82.8171 17.2797C82.4139 17.6712 82.2109 18.4895 82.2109 19.2126V33.4719C81.4908 32.64 80.9208 31.7945 80.4259 31.055C79.5695 29.8235 78.7632 28.4995 77.9847 27.2163C75.1626 22.5838 72.2626 17.8288 66.5656 16.774C65.573 16.5375 64.5387 16.4097 63.471 16.4097C60.3541 16.4097 57.4959 17.4809 55.2549 19.267V2.30813C55.2549 1.61487 55.038 1.05755 54.6015 0.636162C54.1649 0.212054 53.5894 0 52.8748 0C52.1909 0 51.6209 0.212054 51.1704 0.633443C50.72 1.05755 50.492 1.61215 50.492 2.30541V24.4705C47.7839 20.4197 44.592 17.2661 37.7188 16.7196C37.7133 16.7196 37.7105 16.7224 37.7049 16.7224C37.2184 16.6816 36.7207 16.6598 36.2063 16.6598C34.5547 16.6598 33.0005 16.9154 31.538 17.4265C30.0755 17.9376 28.891 18.7043 27.9902 19.7265C27.0865 20.7514 26.6361 21.9992 26.6361 23.47C26.6361 27.1103 29.6251 29.4864 35.6002 30.5983C37.9023 31.0197 39.5372 31.539 40.502 32.1561C41.4668 32.7732 41.9506 33.548 41.9506 34.4805C41.9506 35.4429 41.4613 36.2123 40.4798 36.7805C39.5011 37.3514 38.1276 37.5635 36.3592 37.6369C33.2368 37.7674 26.8891 37.7918 22.9187 37.7674C24.0698 36.6582 24.9957 35.3994 25.5545 33.8226C26.2441 31.6858 26.5305 30.2884 26.2552 27.3822C26.1134 25.8896 25.0402 23.9458 24.2644 22.8257C22.0123 19.0522 17.8278 16.513 13.0399 16.513C10.2623 16.513 7.69319 17.3667 5.58286 18.8157C5.29926 18.9897 5.02122 19.1719 4.7543 19.3676C2.96928 20.678 1.67082 22.3364 0.858945 24.3427C0.0470654 26.3491 -0.189269 28.5484 0.149941 30.9409C0.48359 33.3061 1.32049 35.3451 2.65787 37.0605C3.88125 38.6292 5.4216 39.8063 7.26779 40.5975C9.00554 41.443 10.9657 41.9214 13.0399 41.9214C13.0927 41.9214 13.1428 41.916 13.1956 41.9133C20.458 42.1145 32.2053 41.9051 35.5918 41.8861C37.8968 41.8752 40.4631 41.3696 41.9729 40.7198C43.4826 40.0728 44.6254 39.1865 45.4039 38.0583C46.1796 36.93 46.5689 35.674 46.5689 34.2902C46.5689 32.4252 45.8599 30.9055 44.4446 29.7338C43.0266 28.5593 40.6244 27.6431 37.2323 26.9825C35.5835 26.6508 34.3212 26.3137 33.4509 25.9685C32.5778 25.6232 31.9856 25.2453 31.677 24.8402C31.3656 24.4351 31.2099 23.9322 31.2099 23.3287C31.2099 22.4859 31.6687 21.8334 32.589 21.3658C33.5065 20.9009 34.6826 20.6671 36.1145 20.6671C36.1813 20.6671 36.3425 20.6861 36.362 20.6889C43.1406 21.4637 46.0684 26.1098 49.4577 31.4873C50.2613 32.7596 51.0898 34.0754 51.9962 35.3831C54.3345 39.2273 57.3291 41.2581 61.4441 41.7012C62.103 41.8018 62.7814 41.8562 63.4682 41.8562C69.3599 41.8562 74.334 38.0284 75.9411 32.7787C76.3776 33.4909 76.8308 34.2005 77.3119 34.8938C79.3638 38.3492 81.3601 40.5594 83.1368 41.3668C83.3954 41.5191 83.7012 41.6197 84.0543 41.6659C84.2351 41.6985 84.4019 41.7203 84.6049 41.7203C84.8495 41.7203 85.0775 41.6985 85.4501 41.6142C85.717 41.5354 85.9478 41.4212 86.1396 41.2663C86.1619 41.2527 86.2675 41.1521 86.2731 41.1466C86.6624 40.7551 86.7903 40.1462 86.8514 39.4149L86.8765 26.2213C86.8765 24.533 87.5604 23.19 88.9312 22.1923C90.3019 21.1972 92.1064 20.697 94.3474 20.697C95.1259 20.697 96.138 20.803 97.3836 21.0151C97.695 21.0749 97.9286 21.1048 98.0843 21.1048C99.0491 21.1048 99.6719 20.6236 99.9527 19.6558C99.9833 19.5661 100 19.4138 100 19.2018C100.003 18.4895 99.5357 17.8859 98.6014 17.402ZM4.45957 29.2308C4.45957 24.5983 8.29932 20.8411 13.0371 20.8411C17.775 20.8411 21.6147 24.5955 21.6147 29.2308C21.6147 33.8634 17.775 37.6178 13.0371 37.6178C8.3021 37.6178 4.45957 33.8634 4.45957 29.2308ZM63.471 37.4248C58.7498 37.4248 54.9212 33.6812 54.9212 29.065C54.9212 24.4487 58.7498 20.7052 63.471 20.7052C68.1949 20.7052 72.0207 24.4487 72.0207 29.065C72.0207 33.6812 68.1949 37.4248 63.471 37.4248Z" fill="url(#paint0_linear)"/>
<defs>
<linearGradient id="paint0_linear" x1="-0.000201479" y1="21.0068" x2="100.002" y2="21.0068" gradientUnits="userSpaceOnUse">
<stop stop-color="#0787BD"/>
<stop offset="1" stop-color="#1AE2BE"/>
</linearGradient>
</defs>
</svg>
